<?xml version="1.0" encoding="UTF-8"?>
<svg xmlns="http://www.w3.org/2000/svg" width="1400" height="900" viewBox="0 0 1400 900">
<rect width="1400" height="900" fill="#f7fbff"/>
<rect x="70" y="120" width="1260" height="700" rx="28" fill="white" stroke="#d5dee8" stroke-width="4"/>
<text x="700" y="76" text-anchor="middle" font-family="Arial, sans-serif" font-size="50" font-weight="700" fill="#17233b">قناة غشائية مرتبطة بربيطة</text>
<text x="700" y="170" text-anchor="middle" font-family="Arial, sans-serif" font-size="28" font-weight="700" fill="#51627a">على الغشاء بعد المشبكي</text>
<rect x="180" y="410" width="1040" height="60" fill="#cbd5e1" stroke="#64748b" stroke-width="4"/>
<text x="700" y="570" text-anchor="middle" font-family="Arial, sans-serif" font-size="30" font-weight="700" fill="#51627a">الغشاء بعد المشبكي</text>
<text x="700" y="305" text-anchor="middle" font-family="Arial, sans-serif" font-size="34" font-weight="700" fill="#2f6fed">مستقبل / قناة مرتبطة بربيطة</text>
<rect x="620" y="285" width="48" height="315" rx="22" fill="#9ec3ea" stroke="#2f6fed" stroke-width="4"/>
<rect x="730" y="285" width="48" height="315" rx="22" fill="#9ec3ea" stroke="#2f6fed" stroke-width="4"/>
<rect x="668" y="340" width="62" height="205" rx="18" fill="#ffffff" stroke="#2f6fed" stroke-width="4"/>
<circle cx="700" cy="380" r="16" fill="#86efac" stroke="#16a34a" stroke-width="3"/>
<text x="700" y="387" text-anchor="middle" font-family="Arial, sans-serif" font-size="20" font-weight="700" fill="#16a34a">+</text>
<circle cx="700" cy="450" r="16" fill="#86efac" stroke="#16a34a" stroke-width="3"/>
<text x="700" y="387" text-anchor="middle" font-family="Arial, sans-serif" font-size="20" font-weight="700" fill="#16a34a">+</text>
<circle cx="700" cy="520" r="16" fill="#86efac" stroke="#16a34a" stroke-width="3"/>
<text x="700" y="387" text-anchor="middle" font-family="Arial, sans-serif" font-size="20" font-weight="700" fill="#16a34a">+</text>
<circle cx="470" cy="370" r="18" fill="#f9a8d4" stroke="#be185d" stroke-width="3"/>
<circle cx="520" cy="370" r="18" fill="#f9a8d4" stroke="#be185d" stroke-width="3"/>
<circle cx="570" cy="370" r="18" fill="#f9a8d4" stroke="#be185d" stroke-width="3"/>
<line x1="590" y1="370" x2="618" y2="370" stroke="#f472b6" stroke-width="8"/>
<polygon points="618,370 592,355 592,385" fill="#f472b6"/>
<text x="525" y="330" text-anchor="middle" font-family="Arial, sans-serif" font-size="28" font-weight="700" fill="#be185d">ناقل عصبي</text>
<text x="1090" y="395" text-anchor="middle" font-family="Arial, sans-serif" font-size="30" font-weight="700" fill="#198754">تنفتح القناة بعد ارتباط الربيطة</text>
<text x="1080" y="455" text-anchor="middle" font-family="Arial, sans-serif" font-size="24" fill="#51627a">مرور الشوارد يساهم في نشوء الكمون بعد المشبكي</text>
<text x="700" y="785" text-anchor="middle" font-family="Arial, sans-serif" font-size="24" fill="#51627a">الفكرة الأساسية: الارتباط النوعي يفتح القناة، ثم يسمح بمرور الشوارد عبر الغشاء.</text>
</svg>